<svg width="500" height="500" viewBox="0 0 500 500" fill="none" xmlns="http://www.w3.org/2000/svg">
<g clip-path="url(#clip0_0_1)">
<rect width="500" height="500" fill="#B2F199"/>
<path d="M145 297C145 297 156.47 278.834 159.864 283.976C162.506 287.977 159.864 291.746 159.864 291.746C159.864 291.746 173.034 276.73 175.12 283.976C176.475 288.685 171.599 294.676 171.599 294.676C171.599 294.676 189.419 279.795 189.984 287.232C190.317 291.608 185.29 297 185.29 297" stroke="#186F22" stroke-width="2" stroke-linecap="round"/>
<path d="M350 395C350 395 361.47 376.834 364.864 381.976C367.506 385.977 364.864 389.746 364.864 389.746C364.864 389.746 378.034 374.73 380.12 381.976C381.475 386.685 376.599 392.676 376.599 392.676C376.599 392.676 394.419 377.795 394.984 385.232C395.317 389.608 390.29 395 390.29 395" stroke="#186F22" stroke-width="2" stroke-linecap="round"/>
<path d="M70.94 -7.61826C64.7877 -4.62641 58.8453 -0.386755 60.1928 6.45342C61.8044 14.6338 80.493 11.3479 80.493 11.3479C80.493 11.3479 93.1648 12.2838 95.4197 6.45342C97.6892 0.585045 92.9253 -4.34518 87.6578 -7.61826C82.0753 -11.0871 76.8382 -10.4865 70.94 -7.61826Z" fill="#BFC2B5" stroke="#515645" stroke-width="2" stroke-linecap="round"/>
<path d="M343.761 91.8157C340.404 94.7032 337.372 98.3879 339.28 102.73C341.562 107.922 352.669 103.002 352.669 103.002C352.669 103.002 360.696 101.765 361.185 97.5652C361.679 93.3381 357.945 90.7647 354.157 89.3648C350.143 87.8812 346.98 89.0476 343.761 91.8157Z" fill="#BFC2B5" stroke="#515645" stroke-width="2" stroke-linecap="round"/>
<path d="M102.2 12.8886C97.6382 15.352 95.2244 17.3315 96.2235 22.9635C97.4183 29.6989 108.319 28.9545 108.319 28.9545C108.319 28.9545 117.714 29.7251 119.386 24.9245C121.068 20.0927 119.164 18.8579 115.259 16.1629C111.12 13.3068 106.573 10.5269 102.2 12.8886Z" fill="#BFC2B5" stroke="#515645" stroke-width="2" stroke-linecap="round"/>
<path d="M213.2 299.889C208.638 302.352 206.224 304.332 207.223 309.963C208.418 316.699 219.319 315.954 219.319 315.954C219.319 315.954 228.714 316.725 230.386 311.925C232.068 307.093 230.164 305.858 226.259 303.163C222.12 300.307 217.573 297.527 213.2 299.889Z" fill="#BFC2B5" stroke="#515645" stroke-width="2" stroke-linecap="round"/>
<path opacity="0.7" d="M-4.38286 346.185C-7.71938 350.248 -10.0369 355.16 -8.04561 360.026C-6.37709 364.103 -2.02803 363.268 1.35119 359.189C4.73042 355.111 7.62718 356.768 11.9072 351.651C16.1873 346.535 12.1884 342.261 8.62179 340.451C5.05514 338.64 -1.45835 342.623 -4.38286 346.185Z" fill="#80C864" stroke="#6CA655" stroke-width="2"/>
<path opacity="0.5" d="M24.4135 309.085C21.0769 313.148 18.7594 318.06 20.7507 322.926C22.4192 327.003 26.7683 326.168 30.1475 322.09C33.5267 318.011 36.4235 319.668 40.7035 314.552C44.9836 309.435 40.9848 305.162 37.4181 303.351C33.8515 301.54 27.338 305.523 24.4135 309.085Z" fill="#80C864" stroke="#6CA655" stroke-width="2"/>
<path opacity="0.9" d="M5.54072 387.221C0.773663 389.439 -4.56142 390.458 -8.7768 387.316C-12.3089 384.683 -10.4154 380.68 -5.62263 378.425C-0.829877 376.17 -1.71254 372.951 4.31009 370.083C10.3327 367.214 13.4734 372.152 14.3373 376.058C15.2012 379.964 9.71911 385.278 5.54072 387.221Z" fill="#80C864" stroke="#6CA655" stroke-width="2"/>
<path opacity="0.6" d="M39.4217 350.422C35.9408 354.362 31.4596 357.431 26.3389 356.239C22.0484 355.24 22.1812 350.814 25.6707 346.829C29.1602 342.844 27.063 340.248 31.434 335.209C35.805 330.169 40.6598 333.438 43.0147 336.671C45.3696 339.904 42.4728 346.968 39.4217 350.422Z" fill="#80C864" stroke="#6CA655" stroke-width="2"/>
<path d="M338.815 261.048C334.762 264.397 331.546 268.774 332.568 273.932C333.425 278.253 337.853 278.266 341.951 274.911C346.049 271.555 348.575 273.737 353.756 269.535C358.937 265.333 355.831 260.373 352.678 257.912C349.524 255.452 342.368 258.113 338.815 261.048Z" fill="#80C864" stroke="#6CA655" stroke-width="2"/>
<path opacity="0.7" d="M372.617 234.185C369.281 238.248 366.963 243.16 368.954 248.026C370.623 252.103 374.972 251.268 378.351 247.189C381.73 243.111 384.627 244.768 388.907 239.651C393.187 234.535 389.188 230.261 385.622 228.451C382.055 226.64 375.542 230.623 372.617 234.185Z" fill="#80C864" stroke="#6CA655" stroke-width="2"/>
<path opacity="0.5" d="M401.413 197.085C398.077 201.148 395.759 206.06 397.751 210.926C399.419 215.003 403.768 214.168 407.148 210.09C410.527 206.011 413.424 207.668 417.704 202.552C421.984 197.435 417.985 193.162 414.418 191.351C410.851 189.54 404.338 193.523 401.413 197.085Z" fill="#80C864" stroke="#6CA655" stroke-width="2"/>
<path opacity="0.9" d="M382.541 275.221C377.774 277.439 372.439 278.458 368.223 275.316C364.691 272.683 366.585 268.68 371.377 266.425C376.17 264.17 375.287 260.951 381.31 258.083C387.333 255.214 390.473 260.152 391.337 264.058C392.201 267.964 386.719 273.278 382.541 275.221Z" fill="#80C864" stroke="#6CA655" stroke-width="2"/>
<path opacity="0.6" d="M416.422 238.422C412.941 242.362 408.46 245.431 403.339 244.239C399.048 243.24 399.181 238.814 402.671 234.829C406.16 230.844 404.063 228.248 408.434 223.209C412.805 218.169 417.66 221.438 420.015 224.671C422.37 227.904 419.473 234.968 416.422 238.422Z" fill="#80C864" stroke="#6CA655" stroke-width="2"/>
<path d="M483.253 133C476.1 133 477.403 146.627 477.403 146.627C477.403 146.627 464.606 144.201 464.168 149.619C463.781 154.422 472.166 156.19 472.166 156.19C472.166 156.19 459.099 164.787 464.168 169.331C469.094 173.746 477.403 165.079 477.403 165.079C477.403 165.079 478.436 171.65 483.253 171.65C488.07 171.65 488.624 165.079 488.624 165.079C488.624 165.079 499.984 170.321 502.338 165.079C504.603 160.034 494.359 156.19 494.359 156.19C494.359 156.19 504.988 146.278 499.433 143.435C494.73 141.028 488.624 144.397 488.624 144.397C488.624 144.397 490.406 133 483.253 133Z" fill="white" stroke="#475B49" stroke-width="2" stroke-linecap="round"/>
<ellipse cx="482.502" cy="154.945" rx="5.61917" ry="5.56818" fill="#FFCC3F"/>
<path d="M500.808 178.689C496.338 176.203 492.247 185.316 492.247 185.316C492.247 185.316 485.122 179.327 482.898 182.619C480.928 185.536 485.532 189.574 485.532 189.574C485.532 189.574 474.271 190.497 475.803 195.146C477.293 199.665 485.605 197.044 485.605 197.044C485.605 197.044 483.885 201.579 486.896 203.253C489.907 204.928 492.618 200.944 492.618 200.944C492.618 200.944 497.831 208.224 501.188 205.71C504.421 203.291 499.402 197.287 499.402 197.287C499.402 197.287 509.612 194.682 507.164 190.945C505.091 187.78 500.062 187.799 500.062 187.799C500.062 187.799 505.278 181.175 500.808 178.689Z" fill="white" stroke="#475B49" stroke-width="2" stroke-linecap="round"/>
<ellipse cx="4.01835" cy="4.0671" rx="4.01835" ry="4.0671" transform="matrix(0.87395 0.486015 -0.4928 0.870142 490.932 186.883)" fill="#FFCC3F"/>
<path d="M143.448 439.183C138.402 440.019 140.872 449.699 140.872 449.699C140.872 449.699 131.567 449.445 131.876 453.405C132.149 456.915 138.266 457.211 138.266 457.211C138.266 457.211 130.025 464.942 134.119 467.627C138.097 470.237 142.972 463.012 142.972 463.012C142.972 463.012 144.448 467.632 147.847 467.069C151.245 466.506 150.888 461.7 150.888 461.7C150.888 461.7 159.499 464.154 160.563 460.097C161.587 456.192 153.922 454.616 153.922 454.616C153.922 454.616 160.293 446.222 156.051 444.82C152.459 443.634 148.534 446.778 148.534 446.778C148.534 446.778 148.494 438.347 143.448 439.183Z" fill="white" stroke="#475B49" stroke-width="2" stroke-linecap="round"/>
<ellipse cx="4.01835" cy="4.0671" rx="4.01835" ry="4.0671" transform="matrix(0.986544 -0.163495 0.155814 0.987786 140.818 451.744)" fill="#FFCC3F"/>
<path d="M326.57 115.039C322.099 112.553 318.008 121.666 318.008 121.666C318.008 121.666 310.884 115.677 308.66 118.969C306.689 121.886 311.294 125.925 311.294 125.925C311.294 125.925 300.032 126.847 301.565 131.497C303.054 136.015 311.366 133.394 311.366 133.394C311.366 133.394 309.647 137.929 312.658 139.604C315.668 141.278 318.379 137.294 318.379 137.294C318.379 137.294 323.592 144.574 326.95 142.061C330.182 139.641 325.163 133.638 325.163 133.638C325.163 133.638 335.374 131.032 332.926 127.295C330.853 124.13 325.824 124.149 325.824 124.149C325.824 124.149 331.04 117.525 326.57 115.039Z" fill="white" stroke="#475B49" stroke-width="2" stroke-linecap="round"/>
<ellipse cx="4.01835" cy="4.0671" rx="4.01835" ry="4.0671" transform="matrix(0.87395 0.486015 -0.4928 0.870142 316.693 123.234)" fill="#FFCC3F"/>
<path d="M390.934 498.218C383.509 496.104 380.325 497.064 378.171 496.353L378.869 494.238L373.698 492.532L374.595 489.813L385.798 493.509L426.47 504.916L424.975 509.448C416.103 506.41 396.874 499.91 390.934 498.218Z" fill="#9D7057" stroke="#5A4A34" stroke-width="2"/>
<path d="M42.9339 111.218C35.5088 109.104 32.3253 110.064 30.1708 109.353L30.8686 107.238L25.6978 105.532L26.5949 102.813L37.7983 106.509L78.4703 117.916L76.9752 122.448C68.1031 119.41 48.8739 112.91 42.9339 111.218Z" fill="#9D7057" stroke="#5A4A34" stroke-width="2"/>
<path d="M219.899 316.146C213.236 315.56 210.957 313.558 208.993 313.479L208.904 315.704L204.191 315.515L204.077 318.377L214.287 318.786L250.731 322.16L250.922 317.391C242.802 317.171 225.23 316.614 219.899 316.146Z" fill="#9D7057" stroke="#5A4A34" stroke-width="2"/>
<path d="M171.219 503.134C170.727 503.874 170.37 504.311 170.37 504.311C170.37 504.311 170.678 503.837 171.219 503.134Z" fill="#F46464"/>
<path d="M156.149 512C156.149 512 147.682 506.843 150.619 504.311C153.506 501.823 160.495 507.835 160.495 507.835C160.495 507.835 153.29 482.672 167.605 487.653C180.336 492.083 170.37 504.311 170.37 504.311C170.37 504.311 174.941 497.26 179.851 497.263C186.947 497.269 178.666 510.398 178.666 510.398C178.666 510.398 184.086 506.326 186.961 507.835C189.551 509.195 188.936 512 188.936 512" stroke="#186F22" stroke-width="2" stroke-linecap="round"/>
<path d="M282.219 120.134C281.727 120.874 281.37 121.311 281.37 121.311C281.37 121.311 281.678 120.837 282.219 120.134Z" fill="#F46464"/>
<path d="M267.149 129C267.149 129 258.682 123.843 261.619 121.311C264.506 118.823 271.495 124.835 271.495 124.835C271.495 124.835 264.29 99.6715 278.605 104.653C291.336 109.083 281.37 121.311 281.37 121.311C281.37 121.311 285.941 114.26 290.851 114.263C297.947 114.269 289.666 127.398 289.666 127.398C289.666 127.398 295.086 123.326 297.961 124.835C300.551 126.195 299.936 129 299.936 129" stroke="#186F22" stroke-width="2" stroke-linecap="round"/>
<path d="M390.934 -1.78163C383.509 -3.89597 380.325 -2.93586 378.171 -3.6466L378.869 -5.76175L373.698 -7.46752L374.595 -10.187L385.798 -6.49118L426.47 4.91553L424.975 9.44801C416.103 6.40957 396.874 -0.0901593 390.934 -1.78163Z" fill="#9D7057" stroke="#5A4A34" stroke-width="2"/>
<path d="M-16.747 133C-23.8999 133 -22.5972 146.627 -22.5972 146.627C-22.5972 146.627 -35.3944 144.201 -35.8316 149.619C-36.2191 154.422 -27.8337 156.19 -27.8337 156.19C-27.8337 156.19 -40.9008 164.787 -35.8316 169.331C-30.9057 173.746 -22.5972 165.079 -22.5972 165.079C-22.5972 165.079 -21.5643 171.65 -16.747 171.65C-11.9298 171.65 -11.3763 165.079 -11.3763 165.079C-11.3763 165.079 -0.0162086 170.321 2.33757 165.079C4.60332 160.034 -5.64115 156.19 -5.64115 156.19C-5.64115 156.19 4.98775 146.278 -0.566612 143.435C-5.2698 141.028 -11.3763 144.397 -11.3763 144.397C-11.3763 144.397 -9.59418 133 -16.747 133Z" fill="white" stroke="#475B49" stroke-width="2" stroke-linecap="round"/>
<path d="M21.0265 144.183C15.242 146.131 20.2707 157.366 20.2707 157.366C20.2707 157.366 9.21402 158.789 10.4412 163.516C11.5288 167.706 18.8259 166.926 18.8259 166.926C18.8259 166.926 10.7666 177.797 16.1915 180.281C21.4632 182.695 25.6539 173.06 25.6539 173.06C25.6539 173.06 28.406 178.367 32.3017 177.055C36.1974 175.743 34.7282 170.004 34.7282 170.004C34.7282 170.004 45.4442 171.368 45.8186 166.269C46.179 161.36 36.773 160.881 36.773 160.881C36.773 160.881 42.4771 149.557 37.1559 148.651C32.6502 147.885 28.6946 152.413 28.6946 152.413C28.6946 152.413 26.811 142.235 21.0265 144.183Z" fill="white" stroke="#475B49" stroke-width="2" stroke-linecap="round"/>
<ellipse cx="4.79503" cy="5.00669" rx="4.79503" ry="5.00669" transform="matrix(0.947692 -0.319185 0.324444 0.945905 20.6525 159.847)" fill="#FFCC3F"/>
<path d="M0.807923 178.689C-3.66243 176.203 -7.75316 185.316 -7.75316 185.316C-7.75316 185.316 -14.878 179.327 -17.1016 182.619C-19.0723 185.536 -14.4681 189.574 -14.4681 189.574C-14.4681 189.574 -25.7294 190.497 -24.1967 195.146C-22.7073 199.665 -14.3952 197.044 -14.3952 197.044C-14.3952 197.044 -16.1147 201.579 -13.1041 203.253C-10.0934 204.928 -7.38244 200.944 -7.38244 200.944C-7.38244 200.944 -2.16938 208.224 1.18837 205.71C4.42055 203.291 -0.598368 197.287 -0.598368 197.287C-0.598368 197.287 9.61206 194.682 7.16404 190.945C5.09117 187.78 0.0622491 187.799 0.0622491 187.799C0.0622491 187.799 5.27827 181.175 0.807923 178.689Z" fill="white" stroke="#475B49" stroke-width="2" stroke-linecap="round"/>
<path d="M461.815 373.048C457.762 376.397 454.546 380.774 455.568 385.932C456.425 390.253 460.853 390.266 464.951 386.911C469.049 383.555 471.575 385.737 476.756 381.535C481.937 377.333 478.831 372.373 475.678 369.912C472.524 367.452 465.368 370.113 461.815 373.048Z" fill="#80C864" stroke="#6CA655" stroke-width="2"/>
<path opacity="0.7" d="M495.617 346.185C492.281 350.248 489.963 355.16 491.954 360.026C493.623 364.103 497.972 363.268 501.351 359.189C504.73 355.111 507.627 356.768 511.907 351.651C516.187 346.535 512.188 342.261 508.622 340.451C505.055 338.64 498.542 342.623 495.617 346.185Z" fill="#80C864" stroke="#6CA655" stroke-width="2"/>
<path opacity="0.9" d="M505.541 387.221C500.774 389.439 495.439 390.458 491.223 387.316C487.691 384.683 489.585 380.68 494.377 378.425C499.17 376.17 498.287 372.951 504.31 370.083C510.333 367.214 513.473 372.152 514.337 376.058C515.201 379.964 509.719 385.278 505.541 387.221Z" fill="#80C864" stroke="#6CA655" stroke-width="2"/>
<path d="M171.219 3.13373C170.727 3.87362 170.37 4.31138 170.37 4.31138C170.37 4.31138 170.678 3.83671 171.219 3.13373Z" fill="#F46464"/>
<path d="M156.149 12C156.149 12 147.682 6.843 150.619 4.31138C153.506 1.82276 160.495 7.83533 160.495 7.83533C160.495 7.83533 153.29 -17.3285 167.605 -12.3473C180.336 -7.9171 170.37 4.31138 170.37 4.31138C170.37 4.31138 174.941 -2.74028 179.851 -2.73652C186.947 -2.73108 178.666 10.3982 178.666 10.3982C178.666 10.3982 184.086 6.32599 186.961 7.83533C189.551 9.19487 188.936 12 188.936 12" stroke="#186F22" stroke-width="2" stroke-linecap="round"/>
<path d="M70.94 492.382C64.7877 495.374 58.8453 499.613 60.1928 506.453C61.8044 514.634 80.493 511.348 80.493 511.348C80.493 511.348 93.1648 512.284 95.4197 506.453C97.6892 500.585 92.9253 495.655 87.6578 492.382C82.0753 488.913 76.8382 489.513 70.94 492.382Z" fill="#BFC2B5" stroke="#515645" stroke-width="2" stroke-linecap="round"/>
</g>
<defs>
<clipPath id="clip0_0_1">
<rect width="500" height="500" fill="white"/>
</clipPath>
</defs>
</svg>
